<?xml version="1.0" encoding="UTF-8" standalone="no"?>
<svg
   id="svg"
   width="397.64801"
   height="397.29669"
   viewBox="0 0 397.64801 397.29669"
   version="1.1"
   sodipodi:docname="image2vector (3).svg"
   inkscape:export-filename="LogoBlack.svg"
   inkscape:export-xdpi="96"
   inkscape:export-ydpi="96"
   xmlns:inkscape="http://www.inkscape.org/namespaces/inkscape"
   xmlns:sodipodi="http://sodipodi.sourceforge.net/DTD/sodipodi-0.dtd"
   xmlns="http://www.w3.org/2000/svg"
   xmlns:svg="http://www.w3.org/2000/svg">
  <defs
     id="defs14" />
  <sodipodi:namedview
     id="namedview12"
     pagecolor="#ffffff"
     bordercolor="#666666"
     borderopacity="1.0"
     inkscape:showpageshadow="2"
     inkscape:pageopacity="0.0"
     inkscape:pagecheckerboard="0"
     inkscape:deskcolor="#d1d1d1"
     showgrid="false"
     inkscape:zoom="2.1595951"
     inkscape:cx="126.64411"
     inkscape:cy="154.19557"
     inkscape:window-width="1920"
     inkscape:window-height="1051"
     inkscape:window-x="-9"
     inkscape:window-y="-9"
     inkscape:window-maximized="1"
     inkscape:current-layer="svgg" />
  <g
     id="svgg"
     transform="translate(-1.1091744,-1.2346081)">
    <path
       id="path0"
       d="M 176.755,2.455 C 40.549,16.921 -40.642,169.728 23.336,291.2 90.437,418.603 265.386,436.202 354.599,324.524 465.322,185.919 353.641,-16.332 176.755,2.455 m 41.306,3.191 C 361.469,19.533 441.729,180.95 365.614,302.4 280.775,437.77 81.872,421.213 19.344,273.576 -36.888,140.804 73.722,-8.331 218.061,5.646 M 186,6.863 C 184.68,7.048 180.18,7.588 176,8.064 78.223,19.187 3.385,106.289 6.648,205.171 11.222,343.783 152.17,432.318 279.2,376.37 423.089,312.997 432.163,110.142 294.63,31.393 263.803,13.742 215.218,2.771 186,6.863 m 38,4.788 C 352.168,27.1 427.815,168.299 369.907,283.991 299.4,424.854 98.424,424.623 29.599,283.6 -36.803,147.543 73.322,-6.511 224,11.651 M 180,35.2 v 17.6 h 7.12 7.121 l 0.279,-7.271 c 0.573,-14.88 10.28,-14.812 10.28,0.071 v 7.2 h 7.2 7.2 v -8.026 c 0,-8.913 -0.993,-12.351 -4.327,-14.973 -4.56,-3.587 -13.207,-3.215 -17.738,0.763 L 194.4,32.966 V 25.283 17.6 H 187.2 180 V 35.2 M 152.419,24.922 c -20.537,5.577 -18.507,4.443 -17.328,9.673 1.433,6.356 1.356,6.31 7.666,4.56 3.042,-0.843 5.608,-1.448 5.702,-1.344 0.094,0.104 1.444,4.993 2.999,10.865 1.555,5.872 3.006,10.854 3.224,11.072 0.676,0.676 14.919,-3.275 14.907,-4.136 -0.005,-0.446 -1.258,-5.475 -2.783,-11.175 -3.11,-11.621 -3.27,-11.042 3.475,-12.563 5.092,-1.148 5.326,-1.575 3.915,-7.162 -1.4,-5.545 -0.558,-5.553 -21.777,0.21 m 78.781,7.545 c -20.802,7.651 -9.191,26.773 17.089,28.144 7.459,0.389 7.865,0.329 7.438,-1.1 -0.248,-0.831 -0.672,-2.44 -0.942,-3.576 -0.446,-1.879 -1.035,-2.149 -6.531,-3.004 -5.515,-0.857 -13.758,-3.697 -12.978,-4.471 0.178,-0.177 4.988,0.92 10.688,2.436 13.433,3.575 15.578,2.6 13.255,-6.025 -2.036,-7.562 -19.8,-15.426 -28.019,-12.404 m 13.667,10 c 2.319,2.319 1.846,2.412 -4.049,0.798 -5.149,-1.41 -5.228,-2.28 -0.218,-2.402 1.633,-0.04 3.22,0.557 4.267,1.604 M 52,252.28 c -7.26,4.041 -13.802,7.701 -14.538,8.134 -1.175,0.69 -0.32,2.646 6.985,15.986 4.578,8.36 8.421,15.471 8.539,15.803 0.275,0.767 10.199,-4.37 10.208,-5.284 0.003,-0.375 -2.013,-4.446 -4.481,-9.046 -2.468,-4.601 -4.358,-8.474 -4.2,-8.607 0.158,-0.133 4.427,-2.503 9.487,-5.266 5.06,-2.763 9.378,-5.182 9.596,-5.375 0.634,-0.561 -6.675,-13.832 -7.578,-13.758 -0.45,0.036 -6.758,3.372 -14.018,7.413 m 285.612,2.593 c -1.833,3.34 -3.216,6.167 -3.073,6.283 0.144,0.115 2.061,1.222 4.261,2.46 7.691,4.326 9.395,7.389 6,10.784 -2.215,2.215 -3.258,2.048 -9.581,-1.535 -6.246,-3.539 -5.583,-3.811 -9.942,4.079 l -2.952,5.344 3.437,1.981 c 7.826,4.507 9.913,5.331 13.508,5.331 7.298,0 12.963,-6.417 12.552,-14.218 -0.186,-3.539 -0.061,-3.997 0.778,-2.847 2.483,3.403 -0.001,9.989 -6.047,16.036 l -4.051,4.051 2.846,4.065 c 3.358,4.797 3.657,4.739 9.705,-1.879 10.289,-11.257 13.352,-26.793 6.708,-34.022 -1.921,-2.089 -18.588,-11.986 -20.187,-11.986 -0.346,0 -2.129,2.733 -3.962,6.073 M 67.186,286.2 c -3.522,3.475 -6.52,7.169 -6.823,8.405 -1.804,7.373 5.992,16.595 14.03,16.595 2.435,0 2.439,0.008 1.11,2.036 -1.634,2.493 -0.848,4.326 3.8,8.865 l 3.101,3.028 3.798,-3.557 c 2.089,-1.957 6.077,-5.721 8.862,-8.365 5.47189,-4.84042 5.63574,-4.98297 0.921,-10.616 l -4.739,-5.173 -5.669,4.891 c -6.202,5.352 -8.318,5.934 -11.038,3.039 -2.593,-2.76 -2.257,-3.589 4.014,-9.902 l 5.753,-5.792 -4.353,-4.736 c -5.545,-6.035 -5.331,-6.056 -12.767,1.282 m 249.883,2.65 c -4.053,2.006 -10.668,8.844 -13.025,13.463 -2.022,3.965 -3.161,11.287 -1.755,11.287 0.501,0 0.914,0.45 0.918,1 0.018,2.667 5.643,7 9.086,7 7.408,0 19.818,-9.66 24.735,-19.253 l 2.228,-4.347 -4.06,-1.247 c -3.983,-1.224 -4.03,-1.274 -2.473,-2.683 5.114,-4.628 -8.009,-9.004 -15.654,-5.22 m 11.837,11.396 c -2.709,3.937 -8.436,9.354 -9.89,9.354 -0.538,0 1.885,-2.88 5.384,-6.4 7.337,-7.381 7.728,-7.637 4.506,-2.954 m -12.09,1.737 c -3.691,3.762 -4.514,4.045 -3.627,1.25 0.744,-2.341 3.594,-4.833 5.528,-4.833 1.338,0 1.012,0.616 -1.901,3.583 M 290,312.763 c -2.861,1.184 -5.318,4.585 -5.776,7.994 l -0.444,3.315 -1.742,-1.636 c -2.311,-2.171 -3.105,-2.079 -7.366,0.852 -4.31821,2.54762 -5.6123,2.77087 -3.906,5.645 v 0 c 0.128,0.147 2.975,4.508 6.327,9.691 l 6.094,9.423 5.006,-3.241 c 2.754,-1.783 5.524,-3.555 6.156,-3.939 0.936,-0.568 0.537,-1.643 -2.143,-5.782 -4.728,-7.302 -5.469,-9.163 -4.24,-10.644 1.119,-1.348 3.604,-0.477 5.393,1.89 0.838,1.108 1.472,0.761 5.006,-2.746 l 4.047,-4.016 -2.361,-2.584 c -1.497,-1.639 -2.33675,-2.42094 -4.17319,-3.40531 -0.0722,-0.0281 -3.49544,-1.79325 -5.87781,-0.81669 m -119.915,18.53 c -0.191,0.609 -0.76,7.767 -1.265,15.907 -0.505,8.14 -1.096,15.746 -1.311,16.902 l -0.393,2.102 6.899,0.574 c 8.237,0.687 7.523,1.242 8.342,-6.49 0.99,-9.341 2.583,-11.487 7.227,-9.736 3.038,1.146 3.3,2.088 2.752,9.929 l -0.508,7.282 3.086,0.51 c 1.697,0.28 4.937,0.513 7.199,0.518 l 4.112,0.009 0.553,-8.6 c 0.33,-5.119 0.238,-9.41 -0.227,-10.6 -2.94,-7.528 -15.215,-9.742 -21.479,-3.874 l -1.729,1.619 0.445,-8.073 0.445,-8.072 h -3.205 c -1.763,0 -4.868,-0.228 -6.901,-0.507 -2.782,-0.381 -3.781,-0.233 -4.042,0.6 m -37.08,2.823 c -7.325,3.611 -7.739,12.726 -0.873,19.2 9.779,9.22 24.56223,3.36475 24.66042,3.24016 0.24887,-0.19535 5.45606,-2.73816 5.44438,-3.91706 0.3059,-2.97897 0.0855,-2.827 -3.4998,-3.4251 -4.978,-0.428 -5.763,-0.295 -7.429,1.257 -2.331,2.172 -7.335,1.052 -9.403,-2.104 -3.265,-4.982 4.721,-8.396 8.954,-3.828 1.765,1.905 2.587,2.146 7.491,2.2 6.602,0.073 7.093,-0.283 5.115,-3.701 -4.552,-7.865 -22.149,-13.019 -30.46,-8.922"
       stroke="none"
       fill="#000000"
       fill-rule="evenodd"
       sodipodi:nodetypes="cccccsccccccsccscccccccscccscccccccccccsssccccccccccccccccccccscccssccccccsccccscccccccscccscccccccccccccccscscccsccsscccsccccccccccscsccscccccsccccccccccccccccsccccccccccccc"
       style="fill:#ffffff;fill-opacity:1" />
    <path
       d="m 268.4093,323.82586 c -1.233,-3.857 -0.26625,-4.1085 -20.63625,3.3905 -20.653,7.604 -18.558,6.16 -16.843,11.603 1.722,5.46 2.347,5.719 8.45,3.494 2.682,-0.978 5.09675,-1.9495 5.25175,-1.7765 0.154,0.173 1.90125,5.3065 3.99625,11.0265 2.095,5.72 3.877,10.488 3.961,10.595 0.007,0.01 0.027,0.0141 0.0579,0.0141 0.98555,0 13.52948,-4.67999 14.17908,-5.31311 0.335,-0.326 -5.061,-15.62875 -7.254,-21.51675 4.71325,-2.41925 10.60502,-3.56796 10.91075,-6.03175"
       style="fill:#ffffff;fill-opacity:1;fill-rule:evenodd;stroke:none"
       id="path464"
       sodipodi:nodetypes="cccccsccscc" />
    <path
       d="m 100.28681,309.20487 -2.606,4.4 c -3.048,5.144 -3.771,6.258 -7.518,11.585 -3.498,4.973 -3.588,4.468 1.397,7.772 7.821,5.182 7.222,5.181 10.603,0.019 5.511,-8.41 7.545,-9.644 11.419,-6.931 2.467,1.728 2.225,4.107 -0.89,8.766 -1.468,2.194 -3.3,4.965 -4.072,6.159 l -1.404,2.169 5.612,3.631 c 7.088,4.584 6.394,4.752 11.307,-2.731 8.939,-13.617 4.121,-24.746 -10.35,-23.905 l -4.58,0.266 1.055,-2.521 1.055,-2.52 -5.215,-3.398"
       style="fill:#ffffff;fill-opacity:1;fill-rule:evenodd;stroke:none"
       id="path602" />
    <g
       transform="translate(214.0017,168.39413)"
       id="Cg3fUg59A__9lv1w9TMk9">
<g
   id="path676">
  <path
     style="color:#000000;vector-effect:non-scaling-stroke;fill:#ffffff;fill-opacity:1;stroke-linecap:round;-inkscape-stroke:none"
     d="m -37.761719,-93.980469 a 7.5,7.5 0 0 0 -5.716797,0.513672 c -18.381929,9.628421 -40.054597,24.845492 -57.621094,44.800781 -17.5665,19.955289 -31.12121,44.9006733 -31.74609,73.457032 -0.63931,29.215301 15.80356,55.921785 39.421872,75.080078 23.618311,19.158296 54.719304,31.209316 85.6249999,30.839846 C 22.648606,130.34695 53.286727,120.49734 76.050781,102.83398 98.814836,85.170633 113.6609,58.882561 110.15039,27.837891 103.39062,-31.941195 57.358816,-84.98943 -17.080078,-84.818359 a 7.5,7.5 0 0 0 -7.482422,7.517578 7.5,7.5 0 0 0 7.515625,7.482422 C 50.389839,-69.973338 89.206222,-23.872063 95.244141,29.523437 98.132479,55.066061 86.551681,75.699507 66.855469,90.982422 47.159257,106.26534 19.304417,115.38673 -7.9785156,115.71289 -34.803213,116.03357 -63.007114,105.22912 -83.972656,88.222656 -104.9382,71.216191 -118.36013,48.449212 -117.84961,25.119141 c 0.52494,-23.9890145 12.00805,-45.695331 28.009766,-63.873047 16.001712,-18.177716 36.429052,-32.576217 53.320313,-41.423828 a 7.5,7.5 0 0 0 3.164062,-10.125 7.5,7.5 0 0 0 -4.40625,-3.677735 z"
     id="path1692"
     inkscape:export-filename=".\LogoWhite.svg"
     inkscape:export-xdpi="96"
     inkscape:export-ydpi="96" />
</g>

</g>
    <g
       transform="translate(215.1217,157.53413)"
       id="1rMTHLGA_E40CU2X1Lplt">
<path
   style="color:#000000;vector-effect:non-scaling-stroke;fill:#ffffff;fill-opacity:1;stroke-linecap:round;stroke-linejoin:round;stroke-miterlimit:10;-inkscape-stroke:none"
   d="m -13.105469,-11.845703 a 7.5,7.5 0 0 0 -5.302734,2.1972655 7.5,7.5 0 0 0 0,10.60546875 c 4.69e-4,4.6875e-4 -1.016707,-1.2342729 -1.255859,-1.66601562 -0.239153,-0.43174273 -0.370673,-0.75561973 -0.46875,-1.01953123 -0.196155,-0.5278231 -0.25862,-0.832776 -0.308594,-1.0722657 -0.08785,-0.4209991 -0.09794,-0.5923676 -0.111328,-0.7519531 a 7.50075,7.50075 0 0 0 0.01563,0.2617188 c 0.621879,5.1195175 1.946778,9.797115 3.023437,13.5234376 a 7.5,7.5 0 0 0 9.2871095,5.125 7.5,7.5 0 0 0 5.1230469,-9.2871095 C -4.1409426,2.4797539 -5.1988543,-1.4583544 -5.64062,-5.0683594 -5.656016,-5.2481463 -5.668238,-5.4340357 -5.7578075,-5.8632812 -5.8093045,-6.1100716 -5.8743974,-6.4207033 -6.0722606,-6.953125 -6.1711926,-7.2193359 -6.3029145,-7.5451532 -6.5429637,-7.9785156 -6.783013,-8.4118781 -7.8003075,-9.6479688 -7.8007762,-9.6484375 a 7.5,7.5 0 0 0 -5.3046878,-2.1972655 z"
   id="path679" />

</g>
    <g
       transform="translate(201.1017,161.24413)"
       id="BoWitybZJOly6EPdqlx3i">
<path
   style="color:#000000;vector-effect:non-scaling-stroke;fill:#ffffff;fill-opacity:1;stroke-linecap:round;stroke-linejoin:round;stroke-miterlimit:10;-inkscape-stroke:none"
   d="m -35.457031,-9.7265625 a 7.5,7.5 0 0 0 -7.138672,7.84375 c 0.389581,8.2718404 3.113322,15.3311775 5.083984,21.3925785 a 7.5,7.5 0 0 0 9.451172,4.814453 7.5,7.5 0 0 0 4.814453,-9.453125 C -25.343027,8.4213066 -27.36586,2.6240554 -27.611328,-2.5878906 a 7.5,7.5 0 0 0 -7.845703,-7.1386719 z"
   id="path682" />

</g>
    <g
       transform="translate(212.1317,179.44413)"
       id="gIXfBVYUBW83FP3g3HnOZ">
<g
   id="path685">
  <path
     style="color:#000000;vector-effect:non-scaling-stroke;fill:#ffffff;fill-opacity:1;stroke-linecap:round;-inkscape-stroke:none"
     d="m 21.617187,15.695313 a 7.5,7.5 0 0 0 -4.857421,3.058593 C 3.1953687,37.918278 -12.675388,40.231862 -26.642578,38.574219 -40.609768,36.916576 -51.414062,30.517578 -51.414062,30.517578 a 7.5,7.5 0 0 0 -10.291016,2.564453 7.5,7.5 0 0 0 2.564453,10.291016 c 0,0 13.170528,8.013621 30.730469,10.097656 17.559941,2.084035 40.76784,-2.532271 57.414062,-26.050781 A 7.5,7.5 0 0 0 27.214844,16.964844 7.5,7.5 0 0 0 21.617187,15.695313 Z"
     id="path1686" />
</g>

</g>
  </g>
</svg>
