<?xml version="1.0" encoding="UTF-8" standalone="no"?>
<svg
   id="svg"
   width="243.52713"
   height="225.04147"
   viewBox="0 0 243.52713 225.04147"
   version="1.1"
   sodipodi:docname="LogoBlack.svg"
   xmlns:inkscape="http://www.inkscape.org/namespaces/inkscape"
   xmlns:sodipodi="http://sodipodi.sourceforge.net/DTD/sodipodi-0.dtd"
   xmlns="http://www.w3.org/2000/svg"
   xmlns:svg="http://www.w3.org/2000/svg">
  <sodipodi:namedview
     id="namedview25"
     pagecolor="#ffffff"
     bordercolor="#666666"
     borderopacity="1.0"
     inkscape:showpageshadow="2"
     inkscape:pageopacity="0.0"
     inkscape:pagecheckerboard="0"
     inkscape:deskcolor="#d1d1d1"
     showgrid="false" />
  <defs
     id="defs14" />
  <g
     id="svgg"
     transform="translate(-70.848572,-83.257637)">
    <g
       transform="translate(203.71228,177.57989)"
       id="Cg3fUg59A__9lv1w9TMk9">
      <g
         id="path676">
        <path
           style="color:#000000;vector-effect:non-scaling-stroke;fill:#ffffff;fill-opacity:0;stroke-width:15;stroke-linecap:round;-inkscape-stroke:none"
           d="M -17.06328,-77.318619 C 53.874595,-77.481644 96.2986,-27.906719 102.69745,28.680631 109.0963,85.267981 49.84147,122.52183 -7.8889546,123.21198 -65.619405,123.90213 -126.49689,77.500179 -125.34706,24.954754 c 1.14982,-52.545425 50.07478,-93.300773 85.348005,-111.776824"
           id="path1690" />
        <path
           style="color:#000000;vector-effect:non-scaling-stroke;fill:#000000;stroke-linecap:round;-inkscape-stroke:none"
           d="m -37.761719,-93.980469 a 7.5,7.5 0 0 0 -5.716797,0.513672 c -18.381929,9.628421 -40.054597,24.845492 -57.621094,44.800781 -17.5665,19.955289 -31.12121,44.9006733 -31.74609,73.457032 -0.63931,29.215301 15.80356,55.921785 39.421872,75.080078 23.618311,19.158296 54.719304,31.209316 85.6249999,30.839846 C 22.648606,130.34695 53.286727,120.49734 76.050781,102.83398 98.814836,85.170633 113.6609,58.882561 110.15039,27.837891 103.39062,-31.941195 57.358816,-84.98943 -17.080078,-84.818359 a 7.5,7.5 0 0 0 -7.482422,7.517578 7.5,7.5 0 0 0 7.515625,7.482422 C 50.389839,-69.973338 89.206222,-23.872063 95.244141,29.523437 98.132479,55.066061 86.551681,75.699507 66.855469,90.982422 47.159257,106.26534 19.304417,115.38673 -7.9785156,115.71289 -34.803213,116.03357 -63.007114,105.22912 -83.972656,88.222656 -104.9382,71.216191 -118.36013,48.449212 -117.84961,25.119141 c 0.52494,-23.9890145 12.00805,-45.695331 28.009766,-63.873047 16.001712,-18.177716 36.429052,-32.576217 53.320313,-41.423828 a 7.5,7.5 0 0 0 3.164062,-10.125 7.5,7.5 0 0 0 -4.40625,-3.677735 z"
           id="path1692" />
      </g>
    </g>
    <g
       transform="translate(204.83228,166.71989)"
       id="1rMTHLGA_E40CU2X1Lplt">
      <path
         style="color:#000000;vector-effect:non-scaling-stroke;fill:#000000;stroke-linecap:round;stroke-linejoin:round;stroke-miterlimit:10;-inkscape-stroke:none"
         d="m -13.105469,-11.845703 a 7.5,7.5 0 0 0 -5.302734,2.1972655 7.5,7.5 0 0 0 0,10.60546875 c 4.69e-4,4.6875e-4 -1.016707,-1.2342729 -1.255859,-1.66601562 -0.239153,-0.43174273 -0.370673,-0.75561973 -0.46875,-1.01953123 -0.196155,-0.5278231 -0.25862,-0.832776 -0.308594,-1.0722657 -0.08785,-0.4209991 -0.09794,-0.5923676 -0.111328,-0.7519531 a 7.50075,7.50075 0 0 0 0.01563,0.2617188 c 0.621879,5.1195175 1.946778,9.797115 3.023437,13.5234376 a 7.5,7.5 0 0 0 9.2871095,5.125 7.5,7.5 0 0 0 5.1230469,-9.2871095 C -4.1409426,2.4797539 -5.1988543,-1.4583544 -5.64062,-5.0683594 -5.656016,-5.2481463 -5.668238,-5.4340357 -5.7578075,-5.8632812 -5.8093045,-6.1100716 -5.8743974,-6.4207033 -6.0722606,-6.953125 -6.1711926,-7.2193359 -6.3029145,-7.5451532 -6.5429637,-7.9785156 -6.783013,-8.4118781 -7.8003075,-9.6479688 -7.8007762,-9.6484375 a 7.5,7.5 0 0 0 -5.3046878,-2.1972655 z"
         id="path679" />
    </g>
    <g
       transform="translate(190.81228,170.42989)"
       id="BoWitybZJOly6EPdqlx3i">
      <path
         style="color:#000000;vector-effect:non-scaling-stroke;fill:#000000;stroke-linecap:round;stroke-linejoin:round;stroke-miterlimit:10;-inkscape-stroke:none"
         d="m -35.457031,-9.7265625 a 7.5,7.5 0 0 0 -7.138672,7.84375 c 0.389581,8.2718404 3.113322,15.3311775 5.083984,21.3925785 a 7.5,7.5 0 0 0 9.451172,4.814453 7.5,7.5 0 0 0 4.814453,-9.453125 C -25.343027,8.4213066 -27.36586,2.6240554 -27.611328,-2.5878906 a 7.5,7.5 0 0 0 -7.845703,-7.1386719 z"
         id="path682" />
    </g>
    <g
       transform="translate(201.84228,188.62989)"
       id="gIXfBVYUBW83FP3g3HnOZ"
       inkscape:export-filename="smileBlack.svg"
       inkscape:export-xdpi="96"
       inkscape:export-ydpi="96">
      <g
         id="path685">
        <path
           style="color:#000000;vector-effect:non-scaling-stroke;fill:#ffffff;fill-opacity:0;stroke-width:15;stroke-linecap:round;-inkscape-stroke:none"
           d="m -55.277305,36.945656 c 0,0 47.9490004,28.824825 78.15965,-13.8581"
           id="path1684" />
        <path
           style="color:#000000;vector-effect:non-scaling-stroke;fill:#000000;stroke-linecap:round;-inkscape-stroke:none"
           d="m 21.617187,15.695313 a 7.5,7.5 0 0 0 -4.857421,3.058593 C 3.1953687,37.918278 -12.675388,40.231862 -26.642578,38.574219 -40.609768,36.916576 -51.414062,30.517578 -51.414062,30.517578 a 7.5,7.5 0 0 0 -10.291016,2.564453 7.5,7.5 0 0 0 2.564453,10.291016 c 0,0 13.170528,8.013621 30.730469,10.097656 17.559941,2.084035 40.76784,-2.532271 57.414062,-26.050781 A 7.5,7.5 0 0 0 27.214844,16.964844 7.5,7.5 0 0 0 21.617187,15.695313 Z"
           id="path1686" />
      </g>
    </g>
  </g>
</svg>
